<?xml version="1.0" standalone="no"?><!DOCTYPE svg PUBLIC "-//W3C//DTD SVG 1.1//EN" "http://www.w3.org/Graphics/SVG/1.1/DTD/svg11.dtd"><svg t="1758715747499" class="icon" viewBox="0 0 1024 1024" version="1.1" xmlns="http://www.w3.org/2000/svg" p-id="1998" xmlns:xlink="http://www.w3.org/1999/xlink" width="128" height="128"><path d="M380.83735115 142.73521473h260.36468939A176.50551963 176.50551963 0 0 1 817.77359168 317.89472114v266.25667194c-0.24380652 162.21746146-132.23945943 293.65947127-295.43722506 294.27406637h-21.51589632C337.37381936 878.17149462 204.94642588 746.60758155 204.70262009 584.14631356V317.82869037A175.83505278 175.83505278 0 0 1 380.90338192 142.73521473h-0.06603077zM271.34297752 481.95088767v101.58591104C270.73346193 710.24490515 373.48761043 813.49174551 500.99824603 814.3501464h20.47464019c127.27190859-0.85840089 229.83812304-103.9173072 229.28955946-230.39684568V481.95088767H271.34297752zM489.14316997 207.08988873v0.02031732H383.65636035A112.81115419 112.81115419 0 0 0 271.34297752 319.72834669v101.6468623H489.14316997v0.0101583h43.78352738V207.08988873H489.14316997z" fill="#2c2c2c" p-id="1999"></path></svg>