<?xml version="1.0" standalone="no"?><!DOCTYPE svg PUBLIC "-//W3C//DTD SVG 1.1//EN" "http://www.w3.org/Graphics/SVG/1.1/DTD/svg11.dtd"><svg t="1758715709944" class="icon" viewBox="0 0 1024 1024" version="1.1" xmlns="http://www.w3.org/2000/svg" p-id="1734" data-spm-anchor-id="a313x.collections_detail.0.i2.448f3a81x69r1j" xmlns:xlink="http://www.w3.org/1999/xlink" width="128" height="128"><path d="M641.57282911 142.73521473A175.82489447 175.82489447 0 0 1 817.77359168 317.82869037v266.31762319c-0.24380652 162.46126798-132.67119927 294.02518105-296.11277142 294.27406637h-21.51589635C336.94207951 877.80578555 204.94642588 746.36377502 204.70262009 584.14631356v-266.25667191A176.50551963 176.50551963 0 0 1 381.26909172 142.74029353h260.36468867L641.57790863 142.73521473zM271.71376609 583.95837952c-0.54856358 126.47445897 102.01765088 229.53336526 229.28955874 230.39176687h20.47464091c127.5207939-0.85840089 230.26986289-104.10016173 229.65526851-230.8184272v-101.58591103H271.70868658v102.01257136zM533.11971091 207.24226763H489.14316997v213.33041295h43.97654094v0.80252841h218.00844383V319.72834669a112.79591565 112.79591565 0 0 0-112.31338285-112.61814064H533.11971091V207.24226763z" fill="#2c2c2c" p-id="1735" data-spm-anchor-id="a313x.collections_detail.0.i1.448f3a81x69r1j" class="selected"></path></svg>